# xmcd
#
# Track frame offsets: 
#        150
#        13155
#        21512
#        36952
#        48487
#        59965
#        76227
#        90310
#        108255
#        117557
#
# Disc length: 1740 seconds
#
# Revision: 0
# Processed by: cddbd v1.5.2PL0 Copyright (c) Steve Scherf et al.
# Submitted via: ExactAudioCopy v0.95b3
#
DISCID=8506ca0a
DTITLE=The Holly Tree Players - Country Christmas Feeling
DYEAR=2002
DGENRE=Christmas
TTITLE0=The Christmas Song
TTITLE1=Deck The Halls
TTITLE2=O Holy Night
TTITLE3=Have Yourself A Merry Little Christmas
TTITLE4=Go Tell It On The Mountain
TTITLE5=Silent Night
TTITLE6=Jingle Bells
TTITLE7=Joy To Th e World
TTITLE8=Let It Snow
TTITLE9=O Christmas Tree
EXTD=
EXTT0=
EXTT1=
EXTT2=
EXTT3=
EXTT4=
EXTT5=
EXTT6=
EXTT7=
EXTT8=
EXTT9=
PLAYORDER=
